<?xml version="1.0" encoding="utf-8"?>
<!-- Generator: Adobe Illustrator 25.0.0, SVG Export Plug-In . SVG Version: 6.00 Build 0)  -->
<svg version="1.0" id="OBJECTS" xmlns="http://www.w3.org/2000/svg" xmlns:xlink="http://www.w3.org/1999/xlink" x="0px" y="0px"
	 viewBox="0 0 389.8 402.8" style="enable-background:new 0 0 389.8 402.8;" xml:space="preserve">
<style type="text/css">
	.st0{fill:none;stroke:#4B4D4F;stroke-width:5.0738;stroke-linecap:round;stroke-linejoin:round;stroke-miterlimit:10;}
	.st1{fill:#60AC50;}
	.st2{fill:#FFFFFF;}
	.st3{fill:#FFFFFF;stroke:#4B4D4F;stroke-miterlimit:10;}
	.st4{fill:#1F3B53;stroke:#4B4D4F;stroke-width:2;stroke-linecap:round;stroke-linejoin:round;stroke-miterlimit:10;}
	.st5{fill:#4B4D4F;}
	.st6{font-family:'SegoePrint';}
	.st7{font-size:72.0234px;}
</style>
<path class="st0" d="M142.6,88.3c-9.9,24.8-130.1-83.4-139.8-19C-1.9,100,79.8,136.3,82,158.8"/>
<polygon class="st1" points="347.8,253.8 191,56.7 36.7,128.7 42.7,138.3 36.7,128.7 32.6,147.9 13.7,151 107.4,402.8 194.6,380.2 
	"/>
<g>
	<path class="st2" d="M143.6,363.9c-4.8-8.9-9.5-17.8-14.3-26.7l-14-26.8c-9.4-17.9-18.5-35.9-27.7-53.9c-9.1-18-18.3-36-27.2-54.1
		l-13.4-27.1c-4.4-9.1-8.9-18.1-13.2-27.3c4.8,8.9,9.5,17.8,14.3,26.7l14,26.8c9.4,17.9,18.5,35.9,27.7,53.9
		c9.1,18,18.3,36,27.2,54.1l13.4,27.1C134.8,345.7,139.2,354.7,143.6,363.9z"/>
</g>
<g>
	<path class="st2" d="M108.4,402.8c2.6-3.6,5.3-7,8.1-10.4c2.8-3.4,5.7-6.7,8.6-9.9c2.9-3.2,5.9-6.4,9-9.6c3.1-3.1,6.2-6.2,9.5-9.1
		c-2.6,3.6-5.3,7-8.1,10.4c-2.8,3.4-5.7,6.7-8.6,9.9c-2.9,3.2-5.9,6.4-9,9.6C114.8,396.9,111.7,399.9,108.4,402.8z"/>
</g>
<g>
	<path class="st2" d="M195.6,380.2c-4.5-0.9-8.9-2-13.3-3.2c-4.4-1.2-8.7-2.5-13.1-3.8c-4.3-1.4-8.6-2.8-12.9-4.3
		c-4.3-1.5-8.5-3.1-12.7-5c4.5,0.9,8.9,2,13.3,3.2c4.4,1.2,8.7,2.5,13.1,3.8c4.3,1.4,8.6,2.8,12.9,4.3
		C187.2,376.7,191.4,378.4,195.6,380.2z"/>
</g>
<g>
	<path class="st2" d="M37.7,128.7c6.8,10.3,13.5,20.8,20.2,31.1l20,31.3c6.7,10.4,13.3,20.9,19.9,31.3l19.8,31.4l19.7,31.5
		c6.5,10.5,13.1,21,19.6,31.5l19.5,31.6c6.4,10.6,12.9,21.1,19.3,31.7c-6.8-10.3-13.5-20.8-20.2-31.1l-20-31.3
		c-6.7-10.4-13.3-20.9-19.9-31.3l-19.8-31.4L96,223.6c-6.5-10.5-13.1-21-19.6-31.5l-19.5-31.6C50.5,149.8,44,139.3,37.7,128.7z"/>
</g>
<path class="st2" d="M88.4,131.3c-4.5,2.4-6.1,7.9-3.6,12.2c2.5,4.3,8.1,5.9,12.5,3.5c4.5-2.4,6.1-7.9,3.6-12.2
	C98.5,130.5,92.9,128.9,88.4,131.3z M95.2,143.1c-2.3,1.2-5.2,0.4-6.4-1.8c-1.3-2.2-0.4-5,1.8-6.2c2.3-1.2,5.2-0.4,6.4,1.8
	C98.3,139.1,97.5,141.9,95.2,143.1z"/>
<path class="st2" d="M174,91.3c-4.6,2.5-6.3,8.2-3.9,12.6c2.4,4.4,8.1,5.9,12.7,3.4c4.6-2.5,6.3-8.2,3.9-12.6
	C184.3,90.3,178.6,88.8,174,91.3z M180.7,103.4c-2.3,1.3-5.2,0.5-6.5-1.7c-1.2-2.3-0.4-5.1,2-6.4c2.3-1.3,5.2-0.5,6.5,1.7
	C183.9,99.2,183,102.1,180.7,103.4z"/>
<path class="st0" d="M92.9,139.1c27.2-3.2-51.2-143,15.4-136.4c31.8,3.2,47.9,89.1,69.8,96.7"/>
<g>
	<g>
		<path class="st3" d="M326.8,337.3l-5.8,0.2c-9.5,0.3-19.1-0.4-28.4-2.1c-8.2-1.5-15.1-2.6-20.6-3.5c-23.3-3.8-26.2-4.3-27.3-11.8
			c-0.4-2.7,0.3-5.5,2-7.7c1.7-2.2,4.1-3.6,6.8-4l20.5,0.4c0.2,0,0.3-0.1,0.5-0.2c0,0,0.1-0.1,0.1-0.2c0.1-0.2,0-0.5-0.2-0.6
			l-60.5-46.1c-4.5-3.5-5.4-10-2-14.5c1.7-2.2,4.1-3.6,6.8-4c2.7-0.4,5.4,0.3,7.6,2l26.6,20.3c0.2,0.2,0.6,0.1,0.8-0.1
			c0.2-0.2,0.1-0.6-0.1-0.8c-4.5-3.5-5.4-10-2-14.5c1.7-2.2,4.1-3.6,6.8-4c2.7-0.4,5.5,0.3,7.7,2l8.1,6.1c0.2,0.2,0.6,0.1,0.8-0.1
			c0.2-0.2,0.1-0.6-0.1-0.8c-4.5-3.5-5.4-10-2-14.5c1.7-2.2,4.1-3.6,6.8-4c2.7-0.4,5.4,0.3,7.7,2l6.8,5.2c0.2,0.2,0.6,0.1,0.8-0.1
			c0.2-0.2,0.1-0.6-0.1-0.8c-4.5-3.5-5.4-10-2-14.5c1.7-2.2,4.1-3.6,6.8-4c2.7-0.4,5.5,0.3,7.7,2l17.2,13.1
			c11.5,8.8,21.6,19.2,30.1,31l11.7,16.3L326.8,337.3z"/>
		<path class="st4" d="M212.3,247.5c1.6-2.1,3.9-3.4,6.5-3.8c2.6-0.3,5.2,0.3,7.2,1.9l26.6,20.3c0.5,0.4,1.2,0.3,1.6-0.2
			c0.4-0.5,0.3-1.2-0.2-1.6c-4.3-3.3-5.1-9.4-1.9-13.7c1.6-2.1,3.9-3.4,6.5-3.8c2.6-0.4,5.2,0.3,7.2,1.9l8.1,6.1
			c0.5,0.4,1.2,0.3,1.6-0.2c0.4-0.5,0.3-1.2-0.2-1.6c-4.3-3.3-5.1-9.4-1.9-13.7c1.6-2.1,3.9-3.4,6.5-3.8c2.6-0.4,5.2,0.3,7.2,1.9
			l6.8,5.2c0.5,0.4,1.2,0.3,1.6-0.2c0.4-0.5,0.3-1.2-0.2-1.6c-4.3-3.3-5.1-9.4-1.9-13.7c1.6-2.1,3.9-3.4,6.5-3.8
			c2.6-0.4,5.2,0.3,7.2,1.9l17.2,13.1c11.5,8.7,21.6,19.1,30,30.9l11.4,16l-39.2,51.7l-5.5,0.2c-9.5,0.3-19-0.4-28.3-2.1
			c-8.2-1.5-15.1-2.6-20.6-3.5c-23.6-3.9-25.9-4.4-26.8-11.3c-0.4-2.6,0.3-5.2,1.9-7.3c1.6-2.1,3.8-3.4,6.4-3.8l20.5,0.4
			c0.4,0,0.7-0.2,0.9-0.4c0.1-0.1,0.1-0.2,0.2-0.3c0.2-0.5,0-1-0.4-1.3l-60.5-46.1C209.9,258,209.1,251.8,212.3,247.5 M211.4,246.8
			c-3.6,4.8-2.7,11.7,2.1,15.3l60.5,46.1l-20.6-0.4c-3,0.4-5.5,2-7.2,4.2c-1.7,2.2-2.5,5.1-2.1,8.1c1.3,9.8,6.3,8.3,48.3,15.7
			c9.4,1.7,19,2.4,28.6,2.1l6.1-0.2l40-52.8l-11.9-16.6c-8.5-11.8-18.6-22.3-30.2-31.1l-17.2-13.1c-2.4-1.8-5.3-2.5-8.1-2.1
			c-2.8,0.4-5.4,1.8-7.2,4.2c-3.6,4.8-2.7,11.7,2.1,15.3l-6.8-5.2c-2.4-1.8-5.3-2.5-8.1-2.1c-2.8,0.4-5.4,1.8-7.2,4.2
			c-3.6,4.8-2.7,11.7,2.1,15.3l-8.1-6.1c-2.4-1.8-5.3-2.5-8.1-2.1c-2.8,0.4-5.4,1.8-7.2,4.2c-3.6,4.8-2.7,11.7,2.1,15.3l-26.6-20.3
			c-2.4-1.8-5.3-2.5-8.1-2.1C215.9,243,213.3,244.4,211.4,246.8L211.4,246.8z"/>
	</g>
	<g>
		<path class="st3" d="M347.7,346.5c-1.7,2.2-4.9,2.7-7.1,1L327,337.1l39.3-51.9l13.7,10.4c2.2,1.7,2.7,4.9,1,7.1L347.7,346.5z"/>
		<path class="st4" d="M366.4,285.9l13.2,10.1c2,1.5,2.4,4.4,0.9,6.3l-33.2,43.8c-1.5,2-4.3,2.4-6.3,0.9L327.7,337L366.4,285.9
			 M366.2,284.4l-40,52.8l14.1,10.7c2.5,1.9,6,1.4,7.9-1.1l33.2-43.8c1.9-2.5,1.4-6-1.1-7.9L366.2,284.4L366.2,284.4z"/>
	</g>
	<path class="st4" d="M275.5,281.9L275.5,281.9c-0.4,0.5-1.1,0.6-1.6,0.2L252.7,266l1.3-1.8l21.2,16.1
		C275.8,280.7,275.8,281.4,275.5,281.9z"/>
	<path class="st4" d="M287.3,263.5L287.3,263.5c-0.4,0.5-1.1,0.6-1.6,0.2l-11.9-9.1l1.3-1.8l11.9,9.1
		C287.6,262.3,287.7,263,287.3,263.5z"/>
	<path class="st4" d="M307.1,251.1L307.1,251.1c-0.4,0.5-1.1,0.6-1.6,0.2l-11.9-9.1l1.3-1.8l11.9,9.1
		C307.3,249.9,307.4,250.6,307.1,251.1z"/>
</g>
<g>
	<polygon class="st2" points="201.4,233.5 165.8,220.9 179.8,202.5 	"/>
	<polygon class="st2" points="240.5,228.1 253.1,192.4 271.4,206.4 	"/>
	<polygon class="st2" points="206.8,272.7 194.2,308.4 175.8,294.4 	"/>
	<polygon class="st2" points="219.5,220.3 203.2,186.1 226.1,182.9 	"/>
	<polygon class="st2" points="193.6,254.5 159.5,270.9 156.4,248 	"/>
</g>
<path class="st5" d="M221.9,19.7c1,7-2.1,13.4-9.3,19.3c-7.2,5.9-16.7,9.6-28.5,11.2l0.5,3.3c0.8,6,2.6,10.4,5.3,13.1
	c2.7,2.7,5.9,3.7,9.8,3.2c5.3-0.7,11.3-4.5,18.1-11.3l4.8,4.7c-2.5,3.3-6,6.4-10.4,9.2c-4.4,2.8-9.2,4.5-14.4,5.2
	c-7.8,1.1-13.8-0.4-18.1-4.4c-4.3-4-6.8-9.3-7.7-15.7c-1.9-13.6-0.2-25,5.1-34.1c5.3-9.2,13.1-14.4,23.3-15.9
	c6.4-0.9,11.4-0.1,15.1,2.4C219.2,12.3,221.3,15.6,221.9,19.7z M200.4,14.1c-5.2,0.7-9.2,3.8-12,9.2c-2.8,5.4-4.3,12.1-4.5,20
	c8.4-1.2,14.9-3.8,19.6-7.9c4.7-4.1,6.7-8.8,6-14.1c-0.3-2.3-1.3-4.1-2.9-5.5C205,14.2,202.9,13.7,200.4,14.1z"/>
<text transform="matrix(0.9995 2.046233e-02 -2.047232e-02 0.9998 123.3945 154.0523)" class="st5 st6 st7">negocio</text>
</svg>
